<svg width="12" height="12" fill="none" xmlns="http://www.w3.org/2000/svg"><path d="M5.538.606c.156-.525.73-.455.94.05.37.892.632 1.814 1.259 2.597.956 1.19 2.193 1.872 3.604 2.293.257.077.629.116.657.424.038.395-.375.434-.652.553-1.037.39-2.076.742-2.902 1.55a6.578 6.578 0 0 0-1.755 2.65c-.152.466-.158 1.271-.676 1.277-.616 0-.618-.83-.76-1.312-.413-1.413-1.33-2.398-2.47-3.234C2.101 6.955 1.27 6.786.51 6.46c-.213-.092-.52-.12-.51-.432.011-.313.305-.327.521-.421.943-.413 1.969-.618 2.789-1.33C4.419 3.307 5.076 2.086 5.505.71c.012-.034.023-.068.033-.103z" fill="#495366"/></svg>